<svg viewBox="0 0 16 16" xmlns="http://www.w3.org/2000/svg">
  <path fill="white" d="M7.92673 3.92973C7.6228 3.92973 7.40027 3.84324 7.25916 3.67027C7.1289 3.4973 7.06377 3.25946 7.06377 2.95676C7.06377 2.66486 7.1289 2.43243 7.25916 2.25946C7.40027 2.08649 7.6228 2 7.92673 2C8.24152 2 8.46947 2.08649 8.61058 2.25946C8.7517 2.43243 8.82225 2.66486 8.82225 2.95676C8.82225 3.25946 8.7517 3.4973 8.61058 3.67027C8.46947 3.84324 8.24152 3.92973 7.92673 3.92973ZM2.99322 13.7568L2.24423 13.0108L7.22659 7.98378L2.22795 2.97297L2.97693 2.21081L7.99186 7.22162L13.0231 2.22703L13.772 2.97297L8.75712 7.98378L13.7395 13.027L12.9905 13.773L7.99186 8.74595L2.99322 13.7568ZM2.87924 8.97297C2.61872 8.97297 2.40706 8.9027 2.24423 8.76216C2.08141 8.61081 2 8.36757 2 8.03243C2 7.6973 2.08141 7.45405 2.24423 7.3027C2.40706 7.15135 2.61872 7.07568 2.87924 7.07568C3.15061 7.07568 3.36771 7.15135 3.53053 7.3027C3.69335 7.45405 3.77476 7.6973 3.77476 8.03243C3.77476 8.36757 3.69335 8.61081 3.53053 8.76216C3.36771 8.9027 3.15061 8.97297 2.87924 8.97297ZM13.1045 8.97297C12.844 8.97297 12.6323 8.9027 12.4695 8.76216C12.3066 8.61081 12.2252 8.36757 12.2252 8.03243C12.2252 7.6973 12.3066 7.45405 12.4695 7.3027C12.6323 7.15135 12.844 7.07568 13.1045 7.07568C13.3758 7.07568 13.5929 7.15135 13.7558 7.3027C13.9186 7.45405 14 7.6973 14 8.03243C14 8.36757 13.9186 8.61081 13.7558 8.76216C13.5929 8.9027 13.3758 8.97297 13.1045 8.97297ZM7.92673 14C7.6228 14 7.40027 13.9135 7.25916 13.7405C7.1289 13.5676 7.06377 13.3297 7.06377 13.027C7.06377 12.7351 7.1289 12.5027 7.25916 12.3297C7.40027 12.1568 7.6228 12.0703 7.92673 12.0703C8.24152 12.0703 8.46947 12.1568 8.61058 12.3297C8.7517 12.5027 8.82225 12.7351 8.82225 13.027C8.82225 13.3297 8.7517 13.5676 8.61058 13.7405C8.46947 13.9135 8.24152 14 7.92673 14Z"/>
</svg>
